<svg width="80" height="80" viewBox="0 0 80 80" fill="none" xmlns="http://www.w3.org/2000/svg">
<path opacity="0.4" d="M46.2673 53.1228L68.9129 27.2421C71.4059 24.3929 72.6525 22.9683 73.0843 21.3774C73.4591 19.9965 73.4104 18.5349 72.9446 17.182C72.4079 15.6234 71.0694 14.2849 68.3923 11.6078C65.7153 8.93078 64.3768 7.59226 62.8181 7.05556C61.4652 6.58971 60.0036 6.54104 58.6228 6.91587C57.0319 7.34771 55.6073 8.59423 52.7581 11.0873L26.8774 33.7329C23.6917 36.5204 22.0988 37.9141 21.1619 39.7527C20.2249 41.5912 20.0333 43.699 19.6501 47.9147L19.5721 48.7727C19.3696 50.9999 19.2683 52.1135 18.8434 53.1285C18.4185 54.1435 17.6962 54.9972 16.2516 56.7044L7.5851 66.9467C6.28158 68.4872 6.37652 70.7697 7.80347 72.1967C9.23042 73.6236 11.513 73.7186 13.0535 72.4151L23.2958 63.7485C25.003 62.3039 25.8566 61.5816 26.8716 61.1567C27.8866 60.7318 29.0003 60.6306 31.2275 60.4281L32.0854 60.3501C36.3011 59.9669 38.409 59.7752 40.2475 58.8383C42.086 57.9013 43.4798 56.3085 46.2673 53.1228Z" fill="#E15D77"/>
<path d="M31.2275 60.4257L32.0854 60.3477C36.3011 59.9644 38.409 59.7728 40.2475 58.8359C42.086 57.8989 43.4798 56.3061 46.2673 53.1203L41.667 46.6641C31.667 55.0065 28.3337 43.3398 32.0854 36.6641L30.5773 35.8146C28.7435 34.7816 27.8266 34.2651 26.8429 34.3891C25.8593 34.5131 25.1449 35.1972 23.716 36.5653C22.5037 37.7262 21.7175 38.66 21.1619 39.7502C20.2249 41.5888 20.0333 43.6966 19.6501 47.9123V47.9123L19.5721 48.7703L19.5721 48.7703C19.3696 50.9975 19.2683 52.1111 18.8434 53.1261C18.4185 54.1411 17.6962 54.9947 16.2516 56.702L7.5851 66.9443C6.28158 68.4848 6.37652 70.7673 7.80347 72.1943C9.23042 73.6212 11.513 73.7162 13.0535 72.4126L23.2958 63.7461L23.2958 63.7461C25.003 62.3015 25.8566 61.5792 26.8716 61.1543C27.8866 60.7294 29.0002 60.6282 31.2274 60.4257L31.2275 60.4257Z" fill="white"/>
<path d="M46.2673 53.1228L68.9129 27.2421C71.4059 24.3929 72.6525 22.9683 73.0843 21.3774C73.4591 19.9965 73.4104 18.5349 72.9446 17.182C72.4079 15.6234 71.0694 14.2849 68.3923 11.6078C65.7153 8.93079 64.3768 7.59226 62.8181 7.05556C61.4652 6.58971 60.0036 6.54104 58.6228 6.91587C57.0319 7.34771 55.6073 8.59423 52.7581 11.0873L26.8774 33.7329C23.6917 36.5204 22.0988 37.9141 21.1619 39.7527C20.2249 41.5912 20.0333 43.699 19.6501 47.9147L19.5721 48.7727C19.3696 50.9999 19.2683 52.1135 18.8434 53.1285C18.4185 54.1435 17.6962 54.9972 16.2516 56.7044L7.5851 66.9467C6.28158 68.4872 6.37652 70.7697 7.80347 72.1967C9.23042 73.6236 11.513 73.7186 13.0535 72.4151L23.2958 63.7485C25.003 62.3039 25.8566 61.5816 26.8716 61.1567C27.8866 60.7318 29.0003 60.6306 31.2275 60.4281L32.0854 60.3501C36.3011 59.9669 38.409 59.7752 40.2475 58.8383C42.086 57.9013 43.4798 56.3085 46.2673 53.1228Z" stroke="#E15D77" stroke-width="1.5" stroke-linecap="round" stroke-linejoin="round"/>
<path d="M25.9639 32.9946L31.2331 36.1562C32.4755 36.9016 32.8784 38.5131 32.1329 39.7555L31.1597 41.3776C29.8736 43.521 30.2114 46.2647 31.9789 48.0322C33.7464 49.7998 36.4901 50.1375 38.6336 48.8514L40.2557 47.8782C41.4981 47.1328 43.1095 47.5356 43.855 48.778L47.0165 54.0473" stroke="#E15D77" stroke-width="1.5" stroke-linejoin="round"/>
<path d="M57.5449 22.4478L47.0186 32.9741" stroke="#E15D77" stroke-width="1.5" stroke-linecap="round" stroke-linejoin="round"/>
</svg>
