<svg width="51" height="51" viewBox="0 0 51 51" fill="none" xmlns="http://www.w3.org/2000/svg">
<path opacity="0.4" d="M25.103 25.0988V13.942C25.103 10.0474 25.103 8.10018 26.3272 7.48345C27.5515 6.86672 29.0976 8.03507 32.1898 10.3718L33.6662 11.4875C35.8316 13.1238 36.9143 13.942 36.9143 15.0577C36.9143 16.1733 35.8316 16.9915 33.6662 18.6278L25.103 25.0988L33.6662 31.5697C35.8316 33.2061 36.9143 34.0242 36.9143 35.1399C36.9143 36.2556 35.8316 37.0738 33.6662 38.7101L32.1898 39.8258C29.0976 42.1625 27.5515 43.3309 26.3272 42.7141C25.103 42.0974 25.103 40.1501 25.103 36.2556V25.0988Z" fill="#4D9AF1"/>
<path d="M25.0978 25.0988V13.942C25.0978 10.0474 25.0978 8.10018 26.322 7.48345C27.5462 6.86672 29.0923 8.03507 32.1846 10.3718L33.661 11.4875C35.8264 13.1238 36.9091 13.942 36.9091 15.0576C36.9091 16.1733 35.8264 16.9915 33.661 18.6278L25.0978 25.0988ZM25.0978 25.0988V36.2556C25.0978 40.1501 25.0978 42.0974 26.322 42.7141C27.5462 43.3309 29.0923 42.1625 32.1846 39.8258L33.661 38.7101C35.8264 37.0738 36.9091 36.2556 36.9091 35.1399C36.9091 34.0242 35.8264 33.2061 33.661 31.5697L25.0978 25.0988ZM25.0978 25.0988L11.8101 15.0576M25.0978 25.0988L11.8101 35.1399" stroke="#4D9AF1" stroke-width="1.5" stroke-linecap="round" stroke-linejoin="round"/>
<path d="M39.7398 25.0996H39.7586" stroke="#4D9AF1" stroke-width="2" stroke-linecap="round" stroke-linejoin="round"/>
<path d="M10.4576 25.0996H10.4764" stroke="#4D9AF1" stroke-width="2" stroke-linecap="round" stroke-linejoin="round"/>
</svg>
