<svg width="51" height="51" viewBox="0 0 51 51" fill="none" xmlns="http://www.w3.org/2000/svg">
<path d="M35.557 14.6415C35.557 20.4173 30.8748 25.0994 25.099 25.0994C19.3233 25.0994 14.6411 20.4173 14.6411 14.6415C14.6411 8.86577 19.3233 4.18359 25.099 4.18359C30.8748 4.18359 35.557 8.86577 35.557 14.6415Z" fill="white"/>
<path opacity="0.4" d="M12.5088 42.4364C14.2729 42.7628 15.8571 43.1792 17.2629 43.6443L17.263 43.6443C22.0379 45.2241 24.4255 46.014 25.099 46.014C25.7725 46.014 28.16 45.2241 32.935 43.6443C34.3408 43.1792 35.925 42.7628 37.6891 42.4364C41.9495 41.6481 44.0797 41.2539 45.0472 40.0901C46.0148 38.9264 46.0148 37.0623 46.0148 33.3343V18.6813C46.0148 14.6041 46.0148 12.5654 44.5072 11.31C43.5203 10.4882 42.4208 10.3447 40.7858 10.5274L25.099 13.5944L9.41207 10.5274C7.77709 10.3447 6.67762 10.4882 5.69068 11.31C4.18311 12.5654 4.18311 14.6041 4.18311 18.6813V33.3343C4.18311 37.0623 4.18311 38.9264 5.15067 40.0901C6.11823 41.2539 8.24841 41.6481 12.5088 42.4364Z" fill="#4D9AF1"/>
<path d="M25.849 31.2291C25.849 30.8149 25.5132 30.4791 25.099 30.4791C24.6847 30.4791 24.349 30.8149 24.349 31.2291H25.099H25.849ZM17.2629 43.6443L17.0273 44.3563H17.0273L17.2629 43.6443ZM12.5088 42.4364L12.3723 43.1739V43.1739L12.5088 42.4364ZM5.69068 11.31L5.21075 10.7337V10.7337L5.69068 11.31ZM32.935 43.6443L32.6994 42.9323V42.9323L32.935 43.6443ZM37.6891 42.4364L37.8256 43.1739V43.1739L37.6891 42.4364ZM44.5072 11.31L44.9872 10.7337V10.7337L44.5072 11.31ZM24.349 44.8489C24.349 45.2632 24.6847 45.5989 25.099 45.5989C25.5132 45.5989 25.849 45.2632 25.849 44.8489H25.099H24.349ZM40.7025 9.78206C40.2909 9.82807 39.9945 10.1991 40.0405 10.6107C40.0865 11.0224 40.4575 11.3188 40.8691 11.2728L40.7858 10.5274L40.7025 9.78206ZM9.32877 11.2728C9.74042 11.3188 10.1114 11.0224 10.1574 10.6107C10.2034 10.1991 9.90702 9.82807 9.49537 9.78206L9.41207 10.5274L9.32877 11.2728ZM17.2629 43.6443L17.4985 42.9323C16.0599 42.4563 14.4426 42.0315 12.6452 41.6989L12.5088 42.4364L12.3723 43.1739C14.1032 43.4942 15.6543 43.9021 17.0273 44.3563L17.2629 43.6443ZM4.18311 18.6813H3.43311V33.3343H4.18311H4.93311V18.6813H4.18311ZM12.5088 42.4364L12.6452 41.6989C10.4992 41.3018 8.94511 41.0134 7.80303 40.6835C6.65449 40.3518 6.06276 40.0141 5.72738 39.6107L5.15067 40.0901L4.57395 40.5696C5.20614 41.33 6.16328 41.7712 7.38681 42.1246C8.61681 42.4799 10.258 42.7827 12.3723 43.1739L12.5088 42.4364ZM4.18311 33.3343H3.43311C3.43311 35.1805 3.43199 36.6283 3.55873 37.7575C3.6866 38.8966 3.95417 39.8241 4.57395 40.5696L5.15067 40.0901L5.72738 39.6107C5.37961 39.1924 5.16339 38.606 5.04937 37.5901C4.93422 36.5643 4.93311 35.2161 4.93311 33.3343H4.18311ZM4.18311 18.6813H4.93311C4.93311 16.6175 4.93535 15.1594 5.11211 14.0561C5.28298 12.9896 5.60203 12.3598 6.17062 11.8863L5.69068 11.31L5.21075 10.7337C4.27176 11.5156 3.83702 12.5329 3.631 13.8188C3.43086 15.068 3.43311 16.6679 3.43311 18.6813H4.18311ZM32.935 43.6443L33.1706 44.3563C34.5436 43.9021 36.0947 43.4942 37.8256 43.1739L37.6891 42.4364L37.5527 41.6989C35.7554 42.0315 34.138 42.4563 32.6994 42.9323L32.935 43.6443ZM46.0148 18.6813H45.2648V33.3343H46.0148H46.7648V18.6813H46.0148ZM37.6891 42.4364L37.8256 43.1739C39.94 42.7827 41.5811 42.4799 42.8111 42.1246C44.0346 41.7712 44.9918 41.33 45.624 40.5696L45.0472 40.0901L44.4705 39.6107C44.1352 40.0141 43.5434 40.3518 42.3949 40.6835C41.2528 41.0134 39.6987 41.3018 37.5527 41.6989L37.6891 42.4364ZM46.0148 33.3343H45.2648C45.2648 35.2161 45.2637 36.5643 45.1485 37.5901C45.0345 38.606 44.8183 39.1924 44.4705 39.6107L45.0472 40.0901L45.624 40.5696C46.2437 39.8241 46.5113 38.8966 46.6392 37.7575C46.7659 36.6283 46.7648 35.1805 46.7648 33.3343H46.0148ZM46.0148 18.6813H46.7648C46.7648 16.6679 46.7671 15.068 46.5669 13.8188C46.3609 12.5329 45.9261 11.5156 44.9872 10.7337L44.5072 11.31L44.0273 11.8863C44.5959 12.3598 44.9149 12.9896 45.0858 14.0561C45.2626 15.1594 45.2648 16.6175 45.2648 18.6813H46.0148ZM17.2629 43.6443L17.0273 44.3563C19.4114 45.1451 21.2107 45.7404 22.4975 46.1381C23.1406 46.3369 23.6665 46.4896 24.0792 46.5933C24.4698 46.6914 24.8273 46.764 25.099 46.764V46.014V45.264C25.0339 45.264 24.8404 45.2379 24.4446 45.1385C24.071 45.0446 23.5753 44.9012 22.9404 44.705C21.6713 44.3128 19.8893 43.7233 17.4985 42.9323L17.2629 43.6443ZM32.935 43.6443L32.6994 42.9323C30.3086 43.7233 28.5266 44.3128 27.2575 44.705C26.6226 44.9012 26.1269 45.0446 25.7533 45.1385C25.3575 45.2379 25.164 45.264 25.099 45.264V46.014V46.764C25.3707 46.764 25.7282 46.6914 26.1187 46.5933C26.5314 46.4896 27.0573 46.3369 27.7004 46.1381C28.9872 45.7404 30.7865 45.1451 33.1706 44.3563L32.935 43.6443ZM25.099 31.2291H24.349V44.8489H25.099H25.849V31.2291H25.099ZM40.7858 10.5274L40.8691 11.2728C42.4241 11.099 43.272 11.2574 44.0273 11.8863L44.5072 11.31L44.9872 10.7337C43.7686 9.71894 42.4176 9.59039 40.7025 9.78206L40.7858 10.5274ZM9.41207 10.5274L9.49537 9.78206C7.78033 9.59039 6.42931 9.71894 5.21075 10.7337L5.69068 11.31L6.17062 11.8863C6.92593 11.2574 7.77386 11.099 9.32877 11.2728L9.41207 10.5274Z" fill="#4D9AF1"/>
<path d="M35.557 14.6415C35.557 20.4173 30.8748 25.0994 25.099 25.0994C19.3233 25.0994 14.6411 20.4173 14.6411 14.6415C14.6411 8.86577 19.3233 4.18359 25.099 4.18359C30.8748 4.18359 35.557 8.86577 35.557 14.6415Z" fill="white"/>
<path d="M25.099 25.0994C30.8748 25.0994 35.557 20.4173 35.557 14.6415C35.557 8.86577 30.8748 4.18359 25.099 4.18359M25.099 25.0994C19.3233 25.0994 14.6411 20.4173 14.6411 14.6415C14.6411 8.86577 19.3233 4.18359 25.099 4.18359M25.099 25.0994C27.4093 25.0994 29.2822 20.4173 29.2822 14.6415C29.2822 8.86577 27.4093 4.18359 25.099 4.18359M25.099 25.0994C22.7887 25.0994 20.9159 20.4173 20.9159 14.6415C20.9159 8.86577 22.7887 4.18359 25.099 4.18359" stroke="#4D9AF1" stroke-width="1.5" stroke-linecap="round" stroke-linejoin="round"/>
</svg>
