<svg width="51" height="51" viewBox="0 0 51 51" fill="none" xmlns="http://www.w3.org/2000/svg">
<path opacity="0.4" d="M12.5087 9.97595C19.497 11.2326 23.6621 14.8168 25.0987 16.3259V44.9687C26.772 39.9489 34.1622 33.8137 37.6481 31.3735V11.5037C39.7397 9.97595 42.9993 9.02101 44.5068 10.2411C46.0144 11.4611 46.0144 13.4423 46.0144 17.4047V31.6448C46.0144 35.2678 46.0144 37.0793 45.0468 38.2103C44.0793 39.3413 41.9491 39.7244 37.6888 40.4905L37.6888 40.4905C33.891 41.1734 30.927 42.2615 28.7816 43.355C26.6708 44.4308 25.6154 44.9687 25.0987 44.9687C24.5821 44.9687 23.5267 44.4308 21.4159 43.355C19.2705 42.2615 16.3065 41.1734 12.5087 40.4905L12.5087 40.4905C8.24836 39.7244 6.11821 39.3413 5.15066 38.2103C4.18311 37.0793 4.18311 35.2678 4.18311 31.6448V17.4047C4.18311 13.4423 4.18311 11.4611 5.69067 10.2411C7.19823 9.02101 8.96839 9.33932 12.5087 9.97595Z" fill="#54B589"/>
<path d="M34.7465 33.6396C29.2393 36.7415 26.0971 43.1693 25.0989 44.9662V16.7301C25.9658 15.1697 28.4495 10.699 32.6948 7.66039C34.4832 6.38032 35.3775 5.74028 36.5129 6.32388C37.6483 6.90749 37.6483 8.19571 37.6483 10.7722V29.2615C37.6483 30.6533 37.6483 31.3492 37.3625 31.8382C37.0767 32.3272 36.2999 32.7647 34.7465 33.6396Z" fill="white" stroke="#54B589" stroke-width="1.5" stroke-linecap="round" stroke-linejoin="round"/>
<path d="M36.225 32.9181C29.7975 35.5999 26.1832 43.0163 25.0988 44.9682V16.7321C26.1227 14.8891 29.4021 8.98624 35.1754 6.17825C36.1978 5.68101 36.709 5.43239 37.1786 5.7262C37.6482 6.02 37.6482 6.63999 37.6482 7.87998V30.9102C37.6482 31.6105 37.6482 31.9606 37.4804 32.2125C37.3126 32.4643 36.95 32.6156 36.225 32.9181Z" stroke="#54B589" stroke-width="1.5" stroke-linecap="round" stroke-linejoin="round"/>
<path d="M25.0987 16.3259C23.6621 14.8168 19.497 11.2326 12.5087 9.97595C8.96839 9.33932 7.19823 9.02101 5.69067 10.2411C4.18311 11.4611 4.18311 13.4423 4.18311 17.4047V31.6448C4.18311 35.2678 4.18311 37.0793 5.15066 38.2103C6.11821 39.3413 8.24837 39.7244 12.5087 40.4905C16.3065 41.1734 19.2705 42.2615 21.4159 43.355C23.5267 44.4308 24.5821 44.9687 25.0987 44.9687C25.6154 44.9687 26.6708 44.4308 28.7816 43.355C30.927 42.2615 33.891 41.1734 37.6888 40.4905C41.9491 39.7244 44.0793 39.3413 45.0468 38.2103C46.0144 37.0793 46.0144 35.2678 46.0144 31.6448V17.4047C46.0144 13.4423 46.0144 11.4611 44.5068 10.2411C42.9993 9.02101 39.7397 9.97595 37.6481 11.5037" stroke="#54B589" stroke-width="1.5" stroke-linecap="round" stroke-linejoin="round"/>
</svg>
