<svg width="36" height="36" viewBox="0 0 36 36" fill="none" xmlns="http://www.w3.org/2000/svg">
<path opacity="0.4" d="M3 18.8438C3 14.2034 3 11.8832 4.53769 10.4416C6.07538 9 8.55025 9 13.5 9H22.5C27.4497 9 29.9246 9 31.4623 10.4416C33 11.8832 33 14.2034 33 18.8438V21.6562C33 26.2966 33 28.6168 31.4623 30.0584C29.9246 31.5 27.4497 31.5 22.5 31.5H13.5C8.55025 31.5 6.07538 31.5 4.53769 30.0584C3 28.6168 3 26.2966 3 21.6562V18.8438Z" fill="#0089FF"/>
<path d="M3 18.8438C3 14.2034 3 11.8832 4.53769 10.4416C6.07538 9 8.55025 9 13.5 9H22.5C27.4497 9 29.9246 9 31.4623 10.4416C33 11.8832 33 14.2034 33 18.8438V21.6562C33 26.2966 33 28.6168 31.4623 30.0584C29.9246 31.5 27.4497 31.5 22.5 31.5H13.5C8.55025 31.5 6.07538 31.5 4.53769 30.0584C3 28.6168 3 26.2966 3 21.6562V18.8438Z" stroke="#0089FF" stroke-width="1.5" stroke-linecap="round" stroke-linejoin="round"/>
<path d="M13.5 20.25H22.5M18 15.75L18 24.75" stroke="#0089FF" stroke-width="1.5" stroke-linecap="round" stroke-linejoin="round"/>
<path d="M21 4.5H15C11.277 4.5 10.5 5.277 10.5 9H25.5C25.5 5.277 24.723 4.5 21 4.5Z" stroke="#0089FF" stroke-width="1.5" stroke-linecap="round" stroke-linejoin="round"/>
</svg>
