<svg width="32" height="32" viewBox="0 0 32 32" fill="none" xmlns="http://www.w3.org/2000/svg">
<path opacity="0.4" d="M25.1875 17.128C24.7163 18.9187 22.489 20.184 18.0344 22.7148C13.7281 25.1612 11.575 26.3845 9.83986 25.8928C9.12248 25.6895 8.46887 25.3034 7.94174 24.7716C6.66675 23.4852 6.66675 20.9901 6.66675 16C6.66675 11.0099 6.66675 8.5148 7.94174 7.22843C8.46887 6.6966 9.12248 6.31051 9.83986 6.10723C11.575 5.61553 13.7281 6.83877 18.0344 9.28524C22.489 11.816 24.7163 13.0813 25.1875 14.872C25.382 15.6112 25.382 16.3888 25.1875 17.128Z" fill="#E15D77"/>
<path d="M25.1875 17.128C24.7163 18.9187 22.489 20.184 18.0344 22.7148C13.7281 25.1612 11.575 26.3845 9.83986 25.8928C9.12248 25.6895 8.46887 25.3034 7.94174 24.7716C6.66675 23.4852 6.66675 20.9901 6.66675 16C6.66675 11.0099 6.66675 8.5148 7.94174 7.22843C8.46887 6.6966 9.12248 6.31051 9.83986 6.10723C11.575 5.61553 13.7281 6.83877 18.0344 9.28524C22.489 11.816 24.7163 13.0813 25.1875 14.872C25.382 15.6112 25.382 16.3888 25.1875 17.128Z" stroke="#E15D77" stroke-width="1.5" stroke-linejoin="round"/>
</svg>
